<svg width="60px" height="60px" viewBox="0 0 30 30" version="1.1" xmlns="http://www.w3.org/2000/svg" xmlns:xlink="http://www.w3.org/1999/xlink">
    <!-- Generator: Sketch 44 (41411) - http://www.bohemiancoding.com/sketch -->
    <desc>Created with Sketch.</desc>
    <defs>
        <polygon id="path-1" points="30 29.9999881 30 0 1.1904762e-05 0 1.1904762e-05 29.9999881 30 29.9999881"></polygon>
    </defs>
    <g id="Page-1" stroke="none" stroke-width="1" fill="none" fill-rule="evenodd">
        <g id="01_Homepage_1560+" transform="translate(-127.000000, -10.000000)">
            <g id="Page-1" transform="translate(127.000000, 10.000000)">
                <path d="M28.8139881,15.4699643 C28.8139881,23.1605595 22.5795833,29.3950833 14.8889881,29.3950833 C7.19839286,29.3950833 0.963988095,23.1605595 0.963988095,15.4699643 C0.963988095,7.77936905 7.19839286,1.54496429 14.8889881,1.54496429 C22.5795833,1.54496429 28.8139881,7.77936905 28.8139881,15.4699643" id="Fill-1" fill="#FFFFFF"></path>
                <path d="M20.0618452,12.9624643 C19.3326786,12.9624643 18.8217262,13.4922262 18.8217262,14.2577024 C18.8217262,15.0236548 19.3326786,15.5535357 20.0618452,15.5535357 C20.7907738,15.5535357 21.3017262,15.0236548 21.3017262,14.2577024 C21.3017262,13.4922262 20.7907738,12.9624643 20.0618452,12.9624643" id="Fill-3" fill="#FFAF1A"></path>
                <g id="Group-7">
                    <mask id="mask-2" fill="white">
                        <use xlink:href="#path-1"></use>
                    </mask>
                    <g id="Clip-6"></g>
                    <path d="M14.9992976,-1.19047619e-05 C6.71584524,-1.19047619e-05 1.1904762e-05,6.71558333 1.1904762e-05,14.99975 C1.1904762e-05,23.2842738 6.71584524,29.9999881 14.9992976,29.9999881 C23.2838214,29.9999881 30.0000119,23.2842738 30.0000119,14.99975 C30.0000119,6.71558333 23.2838214,-1.19047619e-05 14.9992976,-1.19047619e-05 L14.9992976,-1.19047619e-05 Z M13.6742976,17.8967738 C13.8319167,17.9967738 14.030131,18.0714167 14.277631,18.0714167 C14.6942976,18.0714167 14.9407262,17.8403452 14.9407262,17.239869 L14.9407262,11.8964167 L16.1454881,11.8964167 L16.1454881,17.3430833 C16.1454881,18.6061786 15.4367976,19.227131 14.3806071,19.227131 C13.6731071,19.227131 13.165131,18.9604643 12.8895357,18.6810595 L13.6742976,17.8967738 Z M6.73525,16.6193929 L3.08191667,16.6193929 L3.08191667,11.8964167 L6.72870238,11.8964167 L6.72870238,12.9741548 L4.28596429,12.9741548 L4.28596429,13.6943929 L6.0229881,13.6943929 L6.0229881,14.7705833 L4.28596429,14.7705833 L4.28596429,15.5414167 L6.73525,15.5414167 L6.73525,16.6193929 Z M8.42763095,11.8964167 L9.59167857,11.8964167 L11.6406071,14.6645119 L11.6406071,11.8964167 L12.8469167,11.8964167 L12.8469167,16.6193929 L11.6815595,16.6193929 L9.63203571,13.8511786 L9.63203571,16.6193929 L8.42763095,16.6193929 L8.42763095,11.8964167 Z M14.9997738,24.0384405 C12.8937024,24.0384405 10.9120357,23.2170119 9.42084524,21.7259405 L10.2734643,20.8729643 C11.5370357,22.1366548 13.2154881,22.8324881 14.9997738,22.8324881 C16.7845357,22.8324881 18.4629881,22.1366548 19.7264405,20.8729643 L20.5791786,21.7259405 C19.0879881,23.2170119 17.1066786,24.0384405 14.9997738,24.0384405 L14.9997738,24.0384405 Z M20.0617976,16.707131 C18.6025119,16.707131 17.5687024,15.6680833 17.5687024,14.2579643 C17.5687024,12.8477262 18.6025119,11.8087976 20.0617976,11.8087976 C21.5208452,11.8087976 22.5548929,12.8477262 22.5548929,14.2579643 C22.5548929,15.6680833 21.5208452,16.707131 20.0617976,16.707131 L20.0617976,16.707131 Z M26.057869,16.6193929 L24.8520357,16.6193929 L24.8520357,14.8280833 L23.0640595,11.8964167 L24.4522738,11.8964167 L25.4591786,13.7315357 L26.4631071,11.8964167 L27.81025,11.8964167 L26.057869,14.8164167 L26.057869,16.6193929 Z" id="Fill-5" fill="#FFAF1A" mask="url(#mask-2)"></path>
                </g>
            </g>
        </g>
    </g>
</svg>
